<svg width="16" height="16" viewBox="0 0 16 16" fill="none" xmlns="http://www.w3.org/2000/svg">
<path fill-rule="evenodd" clip-rule="evenodd" d="M0 8C0 12.4183 3.58172 16 8 16C12.4183 16 16 12.4183 16 8C16 3.58172 12.4183 0 8 0C3.58172 0 0 3.58172 0 8ZM14.9339 8.00013C14.9339 11.8293 11.8297 14.9335 8.00052 14.9335C4.17135 14.9335 1.06719 11.8293 1.06719 8.00013C1.06719 4.17096 4.17135 1.0668 8.00052 1.0668C11.8297 1.0668 14.9339 4.17096 14.9339 8.00013Z" fill="#000524"/>
<path d="M4.53385 9.6C4.53385 11.3673 6.08593 12.8 8.00052 12.8C9.91511 12.8 11.4672 11.3673 11.4672 9.6C11.4225 9.6 4.53385 9.6 4.53385 9.6Z" fill="#000524"/>
<circle cx="5.33386" cy="6.40007" r="1.06667" fill="#000524"/>
<ellipse cx="10.6667" cy="6.40007" rx="1.06667" ry="1.06667" fill="#000524"/>
</svg>
